# xmcd CD database file
#
# Track frame offsets:
#	182
#	14275
#	28547
#	43287
#	62247
#	70895
#	80215
#	102492
#	112815
#	129920
#	146155
#	170160
#	194000
#
# Disc length: 2859 seconds
#
# Revision: 0
# Processed by: cddbd v1.4PL0 Copyright (c) Steve Scherf et al.
# Submitted via: CDex 1.40Release
#
DISCID=c30b290d
DTITLE=Chafino - El Breve Infinito
DYEAR=1993
DGENRE=Native American
TTITLE0=Hombre De Papel
TTITLE1=Tu Mundo No Es Nada
TTITLE2=Soñando Contigo
TTITLE3=Sin Respuesta
TTITLE4=Amigo
TTITLE5=Eleanor Rigby
TTITLE6=Tiempo Para No Pensar
TTITLE7=Abrelatas
TTITLE8=El Breve Infinito
TTITLE9=Moonlight Shadow
TTITLE10=Frivolite
TTITLE11=Tierra De Nadie
TTITLE12=News
EXTD=YEAR: 1993 ID3G: 64
EXTT0=
EXTT1=
EXTT2=
EXTT3=
EXTT4=
EXTT5=
EXTT6=
EXTT7=
EXTT8=
EXTT9=
EXTT10=
EXTT11=
EXTT12=
PLAYORDER=
